<svg xmlns="http://www.w3.org/2000/svg" width="207.928" height="196.156" viewBox="0 0 207.928 196.156">
  <g id="Sandy_Bld-02_Single-06_Converted_" data-name="Sandy_Bld-02_Single-06 [Converted]" transform="translate(-348.583 -376.585)">
    <g id="Illustration" transform="translate(348.583 376.585)">
      <g id="Access_control_system" transform="translate(0 0)">
        <path id="Path_192" data-name="Path 192" d="M1786.352,1091.089h-2.106a19.385,19.385,0,0,0-.8-2.983l1.823-1.051-3.563-6.162-1.826,1.053a19.653,19.653,0,0,0-2.186-2.183l1.055-1.824-6.173-3.557-1.052,1.819a19.549,19.549,0,0,0-2.989-.8v-2.1h-7.128v2.1a19.442,19.442,0,0,0-2.989.8l-1.052-1.819-6.173,3.557,1.055,1.824a19.653,19.653,0,0,0-2.186,2.183l-1.826-1.053-3.563,6.162,1.823,1.051a19.522,19.522,0,0,0-.8,2.983h-2.106v7.115h2.106a19.385,19.385,0,0,0,.8,2.983l-1.823,1.051,3.563,6.162,1.826-1.053a19.664,19.664,0,0,0,2.186,2.183l-1.055,1.824,6.173,3.557,1.052-1.819a19.424,19.424,0,0,0,2.989.8v2.1h7.127v-2.1a19.579,19.579,0,0,0,2.989-.8l1.052,1.819,6.173-3.557-1.055-1.824a19.653,19.653,0,0,0,2.186-2.183l1.826,1.053,3.563-6.162-1.823-1.051a19.508,19.508,0,0,0,.8-2.983h2.106Zm-6.7,9.3a14.776,14.776,0,0,1-8.925,8.909,15.8,15.8,0,0,1-20.434-20.4,14.775,14.775,0,0,1,8.925-8.909A15.8,15.8,0,0,1,1779.649,1100.391Z" transform="translate(-1583.761 -993.476)" fill="#f5f6fa"/>
        <g id="Group_99" data-name="Group 99" transform="translate(66.782 14.37)">
          <g id="Group_97" data-name="Group 97">
            <g id="Group_96" data-name="Group 96">
              <path id="Path_193" data-name="Path 193" d="M1075.74,755.808H992.09l43.764-158.168h83.651Z" transform="translate(-985.144 -586.683)" fill="#596479"/>
              <path id="Path_194" data-name="Path 194" d="M1016.388,680.589H938.34a6.758,6.758,0,0,1-5.559-2.53,7.307,7.307,0,0,1-.969-6.517L976.235,511c1.371-4.955,6.51-8.986,11.456-8.986h78.048a6.758,6.758,0,0,1,5.559,2.53,7.306,7.306,0,0,1,.969,6.517L1027.844,671.6C1026.472,676.558,1021.334,680.589,1016.388,680.589Zm-28.7-178.35c-4.85,0-9.89,3.956-11.235,8.817L932.032,671.6a7.086,7.086,0,0,0,.932,6.318,6.536,6.536,0,0,0,5.377,2.439h78.048c4.85,0,9.89-3.956,11.235-8.817L1072.046,511a7.086,7.086,0,0,0-.931-6.318,6.536,6.536,0,0,0-5.377-2.439Z" transform="translate(-931.466 -502.01)" fill="#73b9ee"/>
            </g>
            <path id="Path_195" data-name="Path 195" d="M1290.486,790.062H1214.77l17.878-64.612h75.716Z" transform="translate(-1182.311 -699.85)" fill="#f5f6fa"/>
          </g>
          <path id="Path_196" data-name="Path 196" d="M1173.211,1796.185H1124.26l3.657-12.885h48.951Z" transform="translate(-1102.171 -1636.5)" fill="#f5f6fa"/>
          <g id="Group_98" data-name="Group 98" transform="translate(31.334 105.937)">
            <path id="Path_197" data-name="Path 197" d="M1434.048,1537.489l.689-2.539-37.339.208-1.377,5.078,37.339-.207Z" transform="translate(-1374.129 -1522.54)" fill="#f5f6fa"/>
            <path id="Path_198" data-name="Path 198" d="M1603.314,1505.24l-12.953.072.651-2.4,12.953-.072Z" transform="translate(-1546.203 -1494.109)" fill="#f5f6fa"/>
            <path id="Path_199" data-name="Path 199" d="M1617.143,1442.01l-9.6.054.651-2.4,9.6-.054Z" transform="translate(-1561.414 -1438.124)" fill="#f5f6fa"/>
            <path id="Path_200" data-name="Path 200" d="M1611.833,1473.829l-12.953.072.65-2.4,12.955-.072Z" transform="translate(-1553.747 -1466.298)" fill="#f5f6fa"/>
            <path id="Path_201" data-name="Path 201" d="M1234.489,1431.052c-4.343-5.931-14.008-5.878-21.585.12s-10.2,15.669-5.857,21.6,14.008,5.878,21.585-.12S1238.833,1436.983,1234.489,1431.052Zm-20.114,15.545-3.39-4.63,5.915-4.682,3.39,4.63Z" transform="translate(-1204.95 -1426.638)" fill="#f5f6fa"/>
          </g>
        </g>
        <g id="Group_105" data-name="Group 105" transform="translate(14.853)">
          <rect id="Rectangle_30" data-name="Rectangle 30" width="52.088" height="31.255" transform="translate(0 47.281)" fill="#a2bfe5"/>
          <g id="Group_101" data-name="Group 101" transform="translate(3.381 56.568)">
            <rect id="Rectangle_31" data-name="Rectangle 31" width="27.635" height="21.969" fill="#f5f6fa"/>
            <g id="Group_100" data-name="Group 100" transform="translate(1.233 3.96)">
              <path id="Path_202" data-name="Path 202" d="M543.546,905.109H518.6a.115.115,0,0,1,0-.229h24.941a.115.115,0,0,1,0,.229Z" transform="translate(-518.49 -904.88)" fill="#a2bfe5"/>
              <path id="Path_203" data-name="Path 203" d="M543.546,933.889H518.6a.115.115,0,0,1,0-.229h24.941a.115.115,0,0,1,0,.229Z" transform="translate(-518.49 -930.363)" fill="#a2bfe5"/>
              <path id="Path_204" data-name="Path 204" d="M543.546,962.669H518.6a.115.115,0,0,1,0-.229h24.941a.115.115,0,0,1,0,.229Z" transform="translate(-518.49 -955.845)" fill="#a2bfe5"/>
              <path id="Path_205" data-name="Path 205" d="M543.546,991.439H518.6a.115.115,0,0,1,0-.229h24.941a.115.115,0,0,1,0,.229Z" transform="translate(-518.49 -981.319)" fill="#a2bfe5"/>
              <path id="Path_206" data-name="Path 206" d="M543.546,1020.219H518.6a.115.115,0,1,1,0-.229h24.941a.115.115,0,0,1,0,.229Z" transform="translate(-518.49 -1006.802)" fill="#a2bfe5"/>
            </g>
          </g>
          <path id="Path_207" data-name="Path 207" d="M806.1,394.85,778.88,419.368v51.925h54.446V419.368Z" transform="translate(-744.411 -392.757)" fill="#f5f6fa"/>
          <path id="Path_208" data-name="Path 208" d="M832.432,401.275a.11.11,0,0,1-.077-.03L805.2,376.854l-27.157,24.391a.115.115,0,1,1-.152-.171l27.234-24.46a.115.115,0,0,1,.154,0l27.234,24.46a.115.115,0,0,1-.076.2Z" transform="translate(-743.517 -376.585)" fill="#438ae8"/>
          <g id="Group_102" data-name="Group 102" transform="translate(64.422 44.298)">
            <rect id="Rectangle_32" data-name="Rectangle 32" width="16.198" height="24.104" transform="translate(0 5.174)" fill="#a2bfe5"/>
            <rect id="Rectangle_33" data-name="Rectangle 33" width="11.744" height="24.104" transform="translate(63.594 24.104) rotate(180)" fill="#a2bfe5"/>
          </g>
          <rect id="Rectangle_34" data-name="Rectangle 34" width="21.22" height="20.82" transform="translate(38.947 49.472)" fill="#a2bfe5"/>
          <rect id="Rectangle_35" data-name="Rectangle 35" width="45.217" height="5.967" transform="translate(38.947 41.315)" fill="#a2bfe5"/>
          <path id="Path_210" data-name="Path 210" d="M865.306,461.5H820.34V449.613l22.489-20.333,22.477,20.333Z" transform="translate(-781.143 -423.243)" fill="#a2bfe5"/>
          <g id="Group_103" data-name="Group 103" transform="translate(49.296 18.192)">
            <path id="Path_211" data-name="Path 211" d="M908.595,554.56a.115.115,0,0,1-.115-.115V535.485a.115.115,0,0,1,.229,0v18.961A.115.115,0,0,1,908.595,554.56Z" transform="translate(-908.48 -535.37)" fill="#fff"/>
            <path id="Path_212" data-name="Path 212" d="M1122.795,554.56a.115.115,0,0,1-.115-.115V535.485a.115.115,0,1,1,.229,0v18.961A.115.115,0,0,1,1122.795,554.56Z" transform="translate(-1098.139 -535.37)" fill="#fff"/>
          </g>
          <g id="Group_104" data-name="Group 104" transform="translate(49.296 18.192)">
            <path id="Path_213" data-name="Path 213" d="M908.595,554.56a.115.115,0,0,1-.115-.115V535.485a.115.115,0,0,1,.229,0v18.961A.115.115,0,0,1,908.595,554.56Z" transform="translate(-908.48 -535.37)" fill="#fff"/>
            <path id="Path_214" data-name="Path 214" d="M1122.795,554.56a.115.115,0,0,1-.115-.115V535.485a.115.115,0,1,1,.229,0v18.961A.115.115,0,0,1,1122.795,554.56Z" transform="translate(-1098.139 -535.37)" fill="#fff"/>
          </g>
          <path id="Path_215" data-name="Path 215" d="M909.865,833.774a.115.115,0,0,1-.115-.115V814.315a.115.115,0,0,1,.229,0v19.344A.115.115,0,0,1,909.865,833.774Z" transform="translate(-860.309 -764.062)" fill="#fff"/>
        </g>
        <g id="Group_110" data-name="Group 110" transform="translate(79.535 23.921)">
          <path id="Path_216" data-name="Path 216" d="M1144.761,659.959H1042.77l20.639-74.589H1165.4Z" transform="translate(-1042.77 -585.37)" fill="#6f7a91"/>
          <path id="Path_217" data-name="Path 217" d="M1337.07,652.661h-89.31l1.321-4.841h89.31Z" transform="translate(-1224.274 -640.665)" fill="#f5f6fa"/>
          <g id="Group_107" data-name="Group 107" transform="translate(18.964 23.093)">
            <path id="Path_218" data-name="Path 218" d="M1289.348,800.084H1208.29l3.645-13.154h81.057Z" transform="translate(-1208.29 -786.93)" fill="#f27436"/>
            <g id="Group_106" data-name="Group 106" transform="translate(3.864 2.638)">
              <ellipse id="Ellipse_4" data-name="Ellipse 4" cx="3.386" cy="2.574" rx="3.386" ry="2.574" transform="translate(0 4.246) rotate(-38.83)" fill="#f5f6fa"/>
              <ellipse id="Ellipse_5" data-name="Ellipse 5" cx="3.386" cy="2.574" rx="3.386" ry="2.574" transform="translate(8.713 4.247) rotate(-38.83)" fill="#f5f6fa"/>
              <ellipse id="Ellipse_6" data-name="Ellipse 6" cx="3.386" cy="2.574" rx="3.386" ry="2.574" transform="translate(17.425 4.246) rotate(-38.83)" fill="#f5f6fa"/>
              <ellipse id="Ellipse_7" data-name="Ellipse 7" cx="3.386" cy="2.574" rx="3.386" ry="2.574" transform="translate(26.138 4.247) rotate(-38.83)" fill="#f5f6fa"/>
              <ellipse id="Ellipse_8" data-name="Ellipse 8" cx="3.386" cy="2.574" rx="3.386" ry="2.574" transform="translate(34.85 4.246) rotate(-38.83)" fill="#f5f6fa"/>
              <ellipse id="Ellipse_9" data-name="Ellipse 9" cx="3.386" cy="2.574" rx="3.386" ry="2.574" transform="translate(43.562 4.246) rotate(-38.83)" fill="#f5f6fa"/>
              <ellipse id="Ellipse_10" data-name="Ellipse 10" cx="3.386" cy="2.574" rx="3.386" ry="2.574" transform="translate(52.275 4.248) rotate(-38.83)" fill="#f5f6fa"/>
            </g>
          </g>
          <g id="Group_109" data-name="Group 109" transform="translate(13.515 42.877)">
            <path id="Path_219" data-name="Path 219" d="M1241.787,972.763H1160.73l3.645-13.153h81.057Z" transform="translate(-1160.73 -959.61)" fill="#f27436"/>
            <g id="Group_108" data-name="Group 108" transform="translate(3.864 2.639)">
              <ellipse id="Ellipse_11" data-name="Ellipse 11" cx="3.386" cy="2.574" rx="3.386" ry="2.574" transform="translate(0 4.246) rotate(-38.83)" fill="#f27436"/>
              <ellipse id="Ellipse_12" data-name="Ellipse 12" cx="3.386" cy="2.574" rx="3.386" ry="2.574" transform="translate(8.713 4.246) rotate(-38.83)" fill="#f27436"/>
              <ellipse id="Ellipse_13" data-name="Ellipse 13" cx="3.386" cy="2.574" rx="3.386" ry="2.574" transform="translate(17.424 4.246) rotate(-38.83)" fill="#f27436"/>
              <ellipse id="Ellipse_14" data-name="Ellipse 14" cx="3.386" cy="2.574" rx="3.386" ry="2.574" transform="translate(26.137 4.246) rotate(-38.83)" fill="#f27436"/>
            </g>
          </g>
        </g>
        <g id="Group_121" data-name="Group 121" transform="translate(0 18.324)">
          <g id="Group_114" data-name="Group 114" transform="translate(14.262)">
            <g id="Group_111" data-name="Group 111" transform="translate(39.671 37.218)">
              <path id="Path_220" data-name="Path 220" d="M1001.986,979.871c-.048,0-.1,0-.143-.006a2.161,2.161,0,0,1-1.666-1.2,4.432,4.432,0,0,1-.5-2.539c.162-1.947,1.4-3.439,2.753-3.327a2.161,2.161,0,0,1,1.666,1.2,4.422,4.422,0,0,1,.5,2.539C1004.44,978.416,1003.285,979.871,1001.986,979.871Zm.3-6.843c-1.181,0-2.234,1.365-2.38,3.122a4.2,4.2,0,0,0,.472,2.406,1.94,1.94,0,0,0,1.486,1.08c1.236.1,2.356-1.3,2.507-3.117a4.2,4.2,0,0,0-.472-2.406,1.94,1.94,0,0,0-1.486-1.08c-.042,0-.085-.006-.126-.006Z" transform="translate(-978.995 -960.031)" fill="#363e44"/>
              <path id="Path_221" data-name="Path 221" d="M842.777,889.97c.447-5.326.237-8.471-1.884-10.951-2.849-3.333-7.673-3.016-8.176-2.974-.321.026-4.909.121-7.423,3.987-2.483,3.818-1.995,10.432.158,14.4l-4.256,9.805c-1.337,2.94-.8,4.14,2.145,5.474l.667.3a5.86,5.86,0,0,0,7.753-2.907l2.782-6.117c1.94.691,3.663.819,4.685.143C841.058,899.92,842.251,896.243,842.777,889.97Z" transform="translate(-820.367 -874.339)" fill="#eacfc7"/>
              <path id="Path_222" data-name="Path 222" d="M966.413,990.592a.086.086,0,0,1-.024,0l-9.481-2.055a.115.115,0,0,1,.048-.225l9.481,2.055a.115.115,0,0,1-.024.227Z" transform="translate(-941.064 -973.763)" fill="#363e44"/>
              <path id="Path_223" data-name="Path 223" d="M943.465,1074.7a.125.125,0,0,1-.045-.009.115.115,0,0,1-.061-.15l.959-2.266a.115.115,0,1,1,.211.089l-.959,2.266A.114.114,0,0,1,943.465,1074.7Z" transform="translate(-929.14 -1048.048)" fill="#363e44"/>
              <path id="Path_224" data-name="Path 224" d="M934.484,999.985a.115.115,0,0,1-.109-.079c-.255-.783-.407-1.282-.517-1.646-.054-.178-.1-.324-.141-.457a.115.115,0,0,1,.219-.07c.042.134.087.281.141.461.11.363.26.862.516,1.642a.115.115,0,0,1-.073.144.127.127,0,0,1-.036.006Z" transform="translate(-920.606 -982.037)" fill="#363e44"/>
              <path id="Path_225" data-name="Path 225" d="M841.219,866.226c-1.717-4.467-10.412-6.282-15.3-3.634-6.609,3.582-8.318,12.77-4.856,17.732,1.162,1.665,3.293,4.026,6.707,4,1.994-.018,2.768-2.585,2.943-3.208a3.462,3.462,0,0,1-1.214-4.279,3.416,3.416,0,0,1,3.853-1.839,3.281,3.281,0,0,1,1.744,1.22c4.553-3.139,7.346-6.806,6.123-9.988Z" transform="translate(-819.316 -861.361)"/>
            </g>
            <g id="Group_113" data-name="Group 113">
              <path id="Path_226" data-name="Path 226" d="M509.252,553.754c-15.286,1.81-14.444-17.234-14.444-17.234l-15,21.312a15.664,15.664,0,0,0,9.175,11.156c-6.368.08-9.978-4.317-11.752-7.493l-4.176,5.936s3.779,14.66,18.705,8.718,24.164,6.721,24.164,6.721l2.48-6.721S524.538,551.943,509.252,553.754Z" transform="translate(-473.06 -536.52)"/>
              <g id="Group_112" data-name="Group 112" transform="translate(40.055 34.77)">
                <path id="Path_227" data-name="Path 227" d="M826.045,848.535a.12.12,0,0,1-.066-.021.115.115,0,0,1-.027-.159,21.627,21.627,0,0,0,2.318-3.819,5.1,5.1,0,0,0,.489-1.971,2.519,2.519,0,0,0-.675-1.824,1.663,1.663,0,0,0-1.8-.394,1.412,1.412,0,0,0-.747.879,1.75,1.75,0,0,0,.12,1.391,1.945,1.945,0,0,0,1.88.945.115.115,0,0,1,.027.227,2.178,2.178,0,0,1-2.107-1.059,1.986,1.986,0,0,1-.139-1.575,1.643,1.643,0,0,1,.871-1.017,1.894,1.894,0,0,1,2.052.44,2.748,2.748,0,0,1,.742,1.989,5.347,5.347,0,0,1-.508,2.059,21.882,21.882,0,0,1-2.341,3.861.113.113,0,0,1-.094.048Z" transform="translate(-824.928 -839.999)" fill="#fff"/>
                <path id="Path_228" data-name="Path 228" d="M822.781,892.94a.114.114,0,0,1-.1-.176l1.151-1.76a.115.115,0,0,1,.191.125l-1.151,1.76a.114.114,0,0,1-.1.052Z" transform="translate(-822.666 -885.12)" fill="#fff"/>
              </g>
              <path id="Path_229" data-name="Path 229" d="M524.73,869.365a.116.116,0,0,1-.077-.03,18.508,18.508,0,0,0-13.573-4.719,36.749,36.749,0,0,0-7.955,1.785c-.594.18-1.206.367-1.811.542-3.029.881-6.584,1.7-9.987,1.062-3.059-.569-6.529-2.713-7.385-6.22a.115.115,0,0,1,.222-.055c.832,3.407,4.219,5.494,7.2,6.049,3.357.624,6.879-.184,9.882-1.057.6-.175,1.216-.361,1.808-.541a36.962,36.962,0,0,1,8.005-1.794,18.744,18.744,0,0,1,13.744,4.779.115.115,0,0,1-.078.2Z" transform="translate(-482.693 -824.397)" fill="#363e44"/>
              <path id="Path_230" data-name="Path 230" d="M739.826,906.628a2.554,2.554,0,0,1-1.318-.359,2.6,2.6,0,0,1-1.221-2.395,3.655,3.655,0,0,1,1.434-2.4,6.473,6.473,0,0,1,9.395,1.2.115.115,0,1,1-.187.134,6.243,6.243,0,0,0-9.062-1.155,3.428,3.428,0,0,0-1.352,2.243,2.32,2.32,0,0,0,3.561,2.149,1.641,1.641,0,0,0,.794-1.756,1.1,1.1,0,0,0-.788-.694.82.82,0,0,0-.711.124l.218.337a.114.114,0,0,1-.191.124l-.321-.495.064-.065a1.02,1.02,0,0,1,1-.247,1.315,1.315,0,0,1,.953.85,1.872,1.872,0,0,1-.89,2.016,2.566,2.566,0,0,1-1.374.391Z" transform="translate(-707.008 -858.336)" fill="#363e44"/>
            </g>
          </g>
          <path id="Path_231" data-name="Path 231" d="M427.537,1734.662s-2.431,12.622,3.873,18.533H546.274s13.477-32.121-57.127-29.458l-61.61,10.923Z" transform="translate(-418.083 -1587.576)" fill="#73b9ee"/>
          <g id="Group_120" data-name="Group 120" transform="translate(0 39.169)">
            <g id="Group_115" data-name="Group 115" transform="translate(0 30.241)">
              <path id="Path_232" data-name="Path 232" d="M357.509,1388.792c-.811.174-4.309,8.445-7.818,17.242a15.4,15.4,0,0,0,14.222,21.079l3.588.025,14.814-40.768-24.806,2.421Z" transform="translate(-348.583 -1358.411)" fill="#eacfc7"/>
              <path id="Path_233" data-name="Path 233" d="M394.2,1173.934H376.49l8.657-17.4a25.621,25.621,0,0,1,22.942-14.2h27.034Z" transform="translate(-373.293 -1142.34)" fill="#7aa748"/>
            </g>
            <g id="Group_116" data-name="Group 116" transform="translate(92.073)">
              <path id="Path_234" data-name="Path 234" d="M1158.239,1224.15c10,4.041,19.2,6.363,25.663,11.028,8.005,5.775,11.2,14.42,7.553,18.288-3.821,4.056-18.982,7.017-39.244-2.147.471-8.273,1.04-18.885,6.028-27.169Z" transform="translate(-1152.21 -1184.535)" fill="#eacfc7"/>
              <path id="Path_235" data-name="Path 235" d="M1353.84,928.973c2.443-5.719,8.57-18.5,13.806-27.983,5.5-9.961,15.07-23.87,17-22.508,1.1.776.188,2.942-2.636,8.57a2.782,2.782,0,0,1,2.645.572,2.66,2.66,0,0,1,.647,2.9,3.185,3.185,0,0,1,2.723.064,2.933,2.933,0,0,1,1.232,3.127,3.055,3.055,0,0,1,2.7.215,2.728,2.728,0,0,1,.869,3.4c-1.194,2.088-4.859,8.225-6.277,11.43-2.792,6.3-9.7,30.024-16.148,38.071-4.736-7.563-11.823-10.289-16.559-17.853Z" transform="translate(-1330.739 -878.389)" fill="#eacfc7"/>
              <path id="Path_236" data-name="Path 236" d="M1556.289,963.488a.117.117,0,0,1-.071-.024l-1.5-1.175a.115.115,0,1,1,.141-.18l1.5,1.176a.115.115,0,0,1-.071.2Z" transform="translate(-1508.556 -952.49)" fill="#363e44"/>
              <path id="Path_237" data-name="Path 237" d="M1589.569,989.488a.118.118,0,0,1-.071-.024l-1.5-1.176a.115.115,0,1,1,.141-.18l1.5,1.176a.115.115,0,0,1-.071.2Z" transform="translate(-1538.023 -975.512)" fill="#363e44"/>
              <path id="Path_238" data-name="Path 238" d="M1623.739,1015.588a.118.118,0,0,1-.071-.024l-1.5-1.176a.115.115,0,1,1,.141-.18l1.5,1.175a.115.115,0,0,1-.071.2Z" transform="translate(-1568.278 -998.621)" fill="#363e44"/>
              <path id="Path_239" data-name="Path 239" d="M1654.249,1039.888a.118.118,0,0,1-.071-.024l-1.5-1.176a.115.115,0,1,1,.141-.18l1.5,1.175a.115.115,0,0,1-.071.2Z" transform="translate(-1595.292 -1020.137)" fill="#363e44"/>
            </g>
            <g id="Group_119" data-name="Group 119" transform="translate(3.196 24.769)">
              <g id="Group_117" data-name="Group 117" transform="translate(0 5.443)">
                <path id="Path_240" data-name="Path 240" d="M424.8,1142.113c28.868-.682,52.759,10.232,52.759,10.232l-2.763,31.331-12.267.227-7.471,25.186-9.078-.259-6.021,15.916-63.483.718,12.062-42.749s6.238-39.894,36.261-40.6Z" transform="translate(-376.48 -1142.082)" fill="#7aa748"/>
                <path id="Path_241" data-name="Path 241" d="M1126.415,1450.469a.115.115,0,0,1-.115-.11c-.042-1.024-.064-2.286-.086-3.5s-.042-2.475-.085-3.5a.114.114,0,0,1,.11-.119.119.119,0,0,1,.119.11c.042,1.023.064,2.283.085,3.5s.042,2.478.085,3.5a.114.114,0,0,1-.11.119h0Z" transform="translate(-1040.24 -1408.736)" fill="#363e44"/>
                <path id="Path_242" data-name="Path 242" d="M500.573,1315.637a.1.1,0,0,1-.032,0,.114.114,0,0,1-.078-.142l3.444-11.788a.115.115,0,0,1,.22.064l-3.444,11.788A.114.114,0,0,1,500.573,1315.637Z" transform="translate(-486.254 -1285.112)" fill="#363e44"/>
              </g>
              <g id="Group_118" data-name="Group 118" transform="translate(28.046)">
                <path id="Path_243" data-name="Path 243" d="M624.823,1100.053a10.813,10.813,0,0,1,9.577-5.473c6.893-.019,32.221,5.362,32.221,5.362l1.149,2.853s-20.11,11.847-34.555,13.553-13.828-11.578-8.391-16.294Z" transform="translate(-621.269 -1094.579)" fill="#ffc23e"/>
                <path id="Path_244" data-name="Path 244" d="M716.221,1155.144a12.123,12.123,0,0,1-6.056-1.263,3.9,3.9,0,0,1-2.089-2.407.115.115,0,1,1,.226-.04,3.773,3.773,0,0,0,1.991,2.257c3.021,1.715,10.031,2.487,26.265-3.577a.115.115,0,0,1,.08.215c-9.71,3.627-16.149,4.815-20.417,4.815Z" transform="translate(-698.129 -1143.745)" fill="#363e44"/>
              </g>
            </g>
          </g>
        </g>
        <g id="Group_122" data-name="Group 122" transform="translate(143.714 123.719)">
          <path id="Path_245" data-name="Path 245" d="M1628.182,1741.962a25.219,25.219,0,0,1-25.243-25.2v-19.551a.115.115,0,0,1,.115-.115h50.255a.115.115,0,0,1,.115.115v19.551a25.219,25.219,0,0,1-25.243,25.2Zm-25.013-44.633v19.436a25.013,25.013,0,0,0,50.027,0v-19.436H1603.17Zm27.018,31.478h-4.011a.115.115,0,0,1-.115-.115v-10.5a5.875,5.875,0,1,1,4.241,0v10.5a.115.115,0,0,1-.115.115Zm-3.9-.229h3.782V1718.11a.115.115,0,0,1,.074-.108,5.646,5.646,0,1,0-3.932,0,.115.115,0,0,1,.074.108v10.467Z" transform="translate(-1602.94 -1669.525)" fill="#363e44"/>
          <path id="Path_246" data-name="Path 246" d="M1671.934,1478.968a.115.115,0,0,1-.115-.115,22.245,22.245,0,0,0-44.491,0,.115.115,0,1,1-.229,0,22.475,22.475,0,0,1,44.949,0A.115.115,0,0,1,1671.934,1478.968Z" transform="translate(-1624.332 -1456.42)" fill="#363e44"/>
        </g>
      </g>
    </g>
  </g>
</svg>
